<?xml version="1.0" encoding="UTF-8"?>
<svg width="22px" height="22px" viewBox="0 0 22 22" version="1.1" xmlns="http://www.w3.org/2000/svg" xmlns:xlink="http://www.w3.org/1999/xlink">
  <defs>
    <linearGradient x1="7.24082752%" y1="7.36595435%" x2="99.4877506%" y2="97.3276592%" id="linearGradient-1">
      <stop stop-color="#FFE4AF" offset="0%"></stop>
      <stop stop-color="#FFD288" offset="100%"></stop>
    </linearGradient>
  </defs>
  <g id="页面-1" stroke="none" stroke-width="1" fill="none" fill-rule="evenodd">
    <rect id="矩形" stroke="#FFFFFF" fill="url(#linearGradient-1)" x="0" y="0" width="20" height="20" rx="10"></rect>
    <path d="M16.4966357,8.32603394 C15.762584,12.384631 11.6651195,15.8199514 10.4317939,16.6052509 C9.19921116,17.3912802 8.07435871,16.2906932 7.66795562,15.4594143 C7.20137218,14.5106324 5.80310777,9.37261336 5.43459602,8.94712116 C5.06905612,8.5223588 3.96946457,9.37261336 3.96946457,9.37261336 L3.4375,8.68511138 C3.4375,8.68511138 5.66937367,6.06720313 7.36779685,5.73877861 C9.16800653,5.39137846 9.16577764,8.45594407 9.60041349,10.1557234 C10.019447,11.8014951 10.3010316,12.7422488 10.6665715,12.7422488 C11.0335974,12.7422488 11.7327296,11.8241199 12.4972429,10.418463 C13.265471,9.01061656 12.4652953,7.76698242 10.9667303,8.65226894 C11.564076,5.11842121 17.2292014,4.26743681 16.4973786,8.32603394 L16.4966357,8.32603394 Z" id="路径" fill="#474038" fill-rule="nonzero"></path>
  </g>
</svg>